<svg xmlns="http://www.w3.org/2000/svg" xmlns:xlink="http://www.w3.org/1999/xlink" xmlns:lucid="lucid" width="1760" height="1360"><g transform="translate(0 0)" lucid:page-tab-id="0_0"><path d="M1240 303h240v60h-240z" fill="none"/><use xlink:href="#a" transform="matrix(1,0,0,1,1240,303.00000000000017) translate(102 33.6)"/><use xlink:href="#b" transform="matrix(1,0,0,1,1240,303.00000000000017) translate(120 33.6)"/><path d="M740.5 391.06c0-4.4 3.58-8 8-8h144c4.42 0 8 3.6 8 8v104c0 4.42-3.58 8-8 8h-144c-4.42 0-8-3.58-8-8z" stroke="#333" fill="#e3fae3"/><use xlink:href="#c" transform="matrix(1,0,0,1,752.5,395.0639768230026) translate(57.025 51.6)"/><path d="M740.5 588.06c0-4.4 3.58-8 8-8h144c4.42 0 8 3.6 8 8v104c0 4.42-3.58 8-8 8h-144c-4.42 0-8-3.58-8-8z" stroke="#333" fill="#e3fae3"/><use xlink:href="#d" transform="matrix(1,0,0,1,752.5,592.0639768230023) translate(42.599999999999994 51.6)"/><path d="M740.5 927.47c0-4.4 3.58-8 8-8h144c4.42 0 8 3.6 8 8v104c0 4.42-3.58 8-8 8h-144c-4.42 0-8-3.58-8-8z" stroke="#333" fill="#e3fae3"/><use xlink:href="#e" transform="matrix(1,0,0,1,752.5,931.4743508030856) translate(57.025 51.6)"/><path d="M740.5 1088c0-4.42 3.58-8 8-8h144c4.42 0 8 3.58 8 8v104c0 4.42-3.58 8-8 8h-144c-4.42 0-8-3.58-8-8z" stroke="#333" fill="#e3fae3"/><use xlink:href="#f" transform="matrix(1,0,0,1,752.5,1092) translate(53.05 51.6)"/><path d="M1020.5 368c0-4.42 3.58-8 8-8h144c4.42 0 8 3.58 8 8v304c0 4.42-3.58 8-8 8h-144c-4.42 0-8-3.58-8-8z" stroke="#333" fill="#edf5ff"/><use xlink:href="#g" transform="matrix(1,0,0,1,1032.5,372) translate(68 14.4)"/><use xlink:href="#h" transform="matrix(1,0,0,1,1032.5,372) translate(32.675 36)"/><path d="M1040.5 438.83c0-4.42 3.58-8 8-8h104c4.42 0 8 3.58 8 8v64c0 4.42-3.58 8-8 8h-104c-4.42 0-8-3.58-8-8z" fill="#edf5ff"/><path d="M1044.57 432l.82-.54 3.1-.63h4.95m4.95 0h9.9m4.96 0h9.9m4.96 0h9.9m4.96 0h9.9m4.95 0h9.9m4.96 0h9.9m4.95 0h4.95l3.1.63.83.55m2.9 2.9l.54.82.63 3.1v5.35m0 5.33v10.67m0 5.33v10.67m0 5.33v10.67m0 5.33v5.33l-.63 3.12-.55.8m-2.9 2.9l-.8.55-3.12.63h-4.95m-4.95 0h-9.9m-4.96 0h-9.9m-4.96 0h-9.9m-4.96 0h-9.9m-4.95 0h-9.9m-4.96 0h-9.9m-4.95 0h-4.95l-3.1-.63-.83-.55m-2.9-2.9l-.54-.8-.63-3.12v-5.33m0-5.33V481.5m0-5.33V465.5m0-5.33V449.5m0-5.33v-5.34l.63-3.1.55-.83" stroke="#333" fill="none"/><use xlink:href="#i" transform="matrix(1,0,0,1,1052.5,442.8329206995327) translate(29.749999999999996 31.6)"/><path d="M1040.5 566.48c0-4.42 3.58-8 8-8h104c4.42 0 8 3.58 8 8v64c0 4.42-3.58 8-8 8h-104c-4.42 0-8-3.58-8-8z" fill="#edf5ff"/><path d="M1044.57 559.66l.82-.55 3.1-.62h4.95m4.95 0h9.9m4.96 0h9.9m4.96 0h9.9m4.96 0h9.9m4.95 0h9.9m4.96 0h9.9m4.95 0h4.95l3.1.63.83.56m2.9 2.9l.54.8.63 3.12v5.33m0 5.34v10.67m0 5.34v10.67m0 5.34v10.67m0 5.34v5.34l-.63 3.1-.55.83m-2.9 2.9l-.8.55-3.12.63h-4.95m-4.95 0h-9.9m-4.96 0h-9.9m-4.96 0h-9.9m-4.96 0h-9.9m-4.95 0h-9.9m-4.96 0h-9.9m-4.95 0h-4.95l-3.1-.63-.83-.55m-2.9-2.9l-.54-.8-.63-3.12v-5.34m0-5.33v-10.66m0-5.33v-10.66m0-5.33v-10.66m0-5.33v-5.32l.63-3.12.55-.8" stroke="#333" fill="none"/><use xlink:href="#j" transform="matrix(1,0,0,1,1052.5,570.477113894702) translate(26.049999999999997 31.6)"/><path d="M1020.5 792.56c0-4.4 3.58-8 8-8h144c4.42 0 8 3.6 8 8v304c0 4.42-3.58 8-8 8h-144c-4.42 0-8-3.58-8-8z" stroke="#333" fill="#edf5ff"/><use xlink:href="#g" transform="matrix(1,0,0,1,1032.5,796.563913817557) translate(68 14.4)"/><use xlink:href="#k" transform="matrix(1,0,0,1,1032.5,796.563913817557) translate(19.199999999999996 36)"/><path d="M1040.5 863.4c0-4.42 3.58-8 8-8h104c4.42 0 8 3.58 8 8v64c0 4.42-3.58 8-8 8h-104c-4.42 0-8-3.58-8-8z" fill="#edf5ff"/><path d="M1044.57 856.58l.82-.55 3.1-.63h4.95m4.95 0h9.9m4.96 0h9.9m4.96 0h9.9m4.96 0h9.9m4.95 0h9.9m4.96 0h9.9m4.95 0h4.95l3.1.63.83.55m2.9 2.9l.54.8.63 3.12v5.33m0 5.33v10.67m0 5.33v10.67m0 5.33v10.67m0 5.33v5.34l-.63 3.1-.55.83m-2.9 2.9l-.8.54-3.12.63h-4.95m-4.95 0h-9.9m-4.96 0h-9.9m-4.96 0h-9.9m-4.96 0h-9.9m-4.95 0h-9.9m-4.96 0h-9.9m-4.95 0h-4.95l-3.1-.63-.83-.55m-2.9-2.9l-.54-.8-.63-3.12v-5.34m0-5.33v-10.67m0-5.33v-10.67m0-5.33v-10.67m0-5.33v-5.33l.63-3.12.55-.8" stroke="#333" fill="none"/><use xlink:href="#l" transform="matrix(1,0,0,1,1052.5,867.3968345170897) translate(26.025 31.6)"/><path d="M1040.5 991.04c0-4.42 3.58-8 8-8h104c4.42 0 8 3.58 8 8v64c0 4.42-3.58 8-8 8h-104c-4.42 0-8-3.58-8-8z" fill="#edf5ff"/><path d="M1044.57 984.22l.82-.55 3.1-.63h4.95m4.95 0h9.9m4.96 0h9.9m4.96 0h9.9m4.96 0h9.9m4.95 0h9.9m4.96 0h9.9m4.95 0h4.95l3.1.63.83.55m2.9 2.9l.54.8.63 3.12v5.33m0 5.34v10.67m0 5.34v10.67m0 5.34v10.67m0 5.34v5.34l-.63 3.1-.55.83m-2.9 2.9l-.8.54-3.12.64h-4.95m-4.95 0h-9.9m-4.96 0h-9.9m-4.96 0h-9.9m-4.96 0h-9.9m-4.95 0h-9.9m-4.96 0h-9.9m-4.95 0h-4.95l-3.1-.63-.83-.54m-2.9-2.9l-.54-.8-.63-3.12v-5.33m0-5.33v-10.66m0-5.33v-10.66m0-5.33v-10.66m0-5.33v-5.33l.63-3.1.55-.83" stroke="#333" fill="none"/><use xlink:href="#m" transform="matrix(1,0,0,1,1052.5,995.041027712259) translate(8.549999999999997 31.6)"/><path d="M901.9 443.06h5.2m5.16 0h10.36m5.17 0h10.35m5.17 0h5.18l3.1.4 2.9 1.2m4.4 4.4l1.2 2.9.4 3.1v4.42m0 4.4v8.83m0 4.42v8.82m0 4.4v8.84m0 4.4V508l.4 3.1 1.2 2.9m4.4 4.4l2.9 1.2 3.1.4h5.22m5.22 0h10.45m5.2 0h10.46m5.22 0h5.22M919.2 432.88l-17.22 10.18 17.22 10.18" stroke="#333" fill="none"/><path d="M1020 520.5h-.5v-1h.5z" stroke="#333" stroke-width=".05" fill="#333"/><path d="M901.9 1140h5.2m5.16 0h10.36m5.17 0h10.35m5.17 0h5.18l3.1-.4 2.9-1.2m4.4-4.4l1.2-2.9.4-3.1v-5.07m0-5.06v-10.14m0-5.06v-10.14m0-5.06v-10.14m0-5.06v-10.14m0-5.06v-10.14m0-5.06v-10.14m0-5.06v-10.14m0-5.06v-10.14m0-5.06v-10.14m0-5.06V976l.4-3.1 1.2-2.9m4.4-4.4l2.9-1.2 3.1-.4h5.22m5.22 0h10.45m5.2 0h10.46m5.22 0h5.22M919.2 1129.82L901.98 1140l17.22 10.18" stroke="#333" fill="none"/><path d="M1020 964.5h-.5v-1h.5z" stroke="#333" stroke-width=".05" fill="#333"/><path d="M500.5 368c0-4.42 3.58-8 8-8h144c4.42 0 8 3.58 8 8v204.06c0 4.42-3.58 8-8 8h-144c-4.42 0-8-3.58-8-8z" fill="#edf5ff"/><path d="M504.57 361.18l.82-.55 3.1-.63h4.8m4.8 0h9.6m4.8 0h9.6m4.8 0h9.6m4.8 0h9.6m4.8 0h9.6m4.8 0h9.6m4.8 0h9.6m4.8 0h9.6m4.8 0h9.6m4.8 0h4.8l3.1.63.83.55m2.9 2.9l.54.8.63 3.12v4.86m0 4.86v9.7m0 4.87v9.7m0 4.87v9.72m0 4.85v9.7m0 4.87v9.72m0 4.86v9.7m0 4.87v9.72m0 4.85v9.72m0 4.86v9.7m0 4.87v9.72m0 4.86v9.7m0 4.87v9.72m0 4.86v9.72m0 4.86v4.86l-.63 3.12-.55.82m-2.9 2.88l-.8.56-3.12.62h-4.8m-4.8 0h-9.6m-4.8 0h-9.6m-4.8 0h-9.6m-4.8 0h-9.6m-4.8 0h-9.6m-4.8 0h-9.6m-4.8 0h-9.6m-4.8 0h-9.6m-4.8 0h-9.6m-4.8 0h-4.8l-3.1-.62-.83-.56m-2.9-2.88l-.54-.82-.63-3.12v-4.85m0-4.85v-9.72m0-4.86v-9.72m0-4.86v-9.72m0-4.86v-9.72m0-4.86v-9.7m0-4.87v-9.72m0-4.86v-9.73m0-4.86v-9.7m0-4.86v-9.72m0-4.86v-9.7m0-4.87v-9.73m0-4.86v-9.7m0-4.87v-9.7m0-4.87V368l.63-3.1.55-.83" stroke="#333" fill="none"/><use xlink:href="#g" transform="matrix(1,0,0,1,512.5,372) translate(68 14.4)"/><use xlink:href="#n" transform="matrix(1,0,0,1,512.5,372) translate(25.574999999999996 36)"/><path d="M520.5 463.7c0-4.43 3.58-8 8-8h104c4.42 0 8 3.57 8 8v39c0 4.43-3.58 8-8 8h-104c-4.42 0-8-3.57-8-8z" fill="#edf5ff"/><path d="M524.57 456.87l.82-.55 3.1-.63h4.95m4.95 0h9.9m4.96 0h9.9m4.96 0h9.9m4.96 0h9.9m4.95 0h9.9m4.96 0h9.9m4.95 0h4.95l3.1.62.83.55m2.9 2.9l.54.8.63 3.12v4.33m0 4.33v8.67m0 4.34v8.67m0 4.33v4.34l-.63 3.12-.55.82m-2.9 2.9l-.8.54-3.12.63h-4.95m-4.95 0h-9.9m-4.96 0h-9.9m-4.96 0h-9.9m-4.96 0h-9.9m-4.95 0h-9.9m-4.96 0h-9.9m-4.95 0h-4.95l-3.1-.62-.83-.55m-2.9-2.9l-.54-.8-.63-3.12v-4.33m0-4.33v-8.67m0-4.34v-8.67m0-4.33v-4.34l.63-3.12.55-.82" stroke="#333" fill="none"/><use xlink:href="#o" transform="matrix(1,0,0,1,532.5,467.6921758124214) translate(21.099999999999998 19.6)"/><path d="M519.5 483.2h-5.22m-5.22 0H498.6m-5.2 0h-10.46m-5.22 0h-5.22l-3.1-.4-2.9-1.2m-4.4-4.4l-1.2-2.9-.4-3.1v-5.16m0-5.15v-10.32m0-5.16v-10.3m0-5.16v-10.32m0-5.15v-10.32m0-5.16v-10.3m0-5.16v-10.32m0-5.15v-10.32m0-5.16v-10.3m0-5.16V332l.4-3.1 1.2-2.9m4.4-4.4l2.9-1.2 3.1-.4h5.05m5.06 0h10.12m5.05 0h10.1m5.06 0h10.1m5.06 0h10.1m5.05 0h10.1m5.07 0h10.1m5.06 0h10.1m5.06 0h10.1m5.06 0H614m5.06 0h10.1m5.07 0h10.1m5.06 0h10.1m5.05 0h10.1m5.06 0h10.12m5.05 0h10.1m5.06 0h10.1m5.07 0h10.1m5.06 0h10.1m5.06 0h10.1m5.06 0h10.1m5.06 0h10.1m5.06 0h10.1m5.07 0h10.1m5.06 0h10.1m5.06 0h10.1m5.05 0h10.1m5.06 0h10.12m5.06 0h10.1m5.06 0h10.1m5.06 0h10.1m5.06 0h10.1m5.06 0h10.1m5.06 0h10.1m5.07 0H988l3.1.4 2.9 1.2m4.4 4.4l1.2 2.9.4 3.1v5.28m0 5.3v10.56m0 5.28V369m0 5.28v10.57m0 5.28v10.57m0 5.3v10.56m0 5.28v10.57m0 5.3v10.56m0 5.3v5.27l.4 3.12 1.2 2.87m4.4 4.4l2.9 1.2 3.1.4h4.52m4.5 0h9.04m4.52 0h4.5" stroke="#333" fill="none"/><path d="M520 483.7h-.5v-1h.5z" stroke="#333" stroke-width=".05" fill="#333"/><path d="M1021.8 481l17.22-10.17-17.22-10.18M661.5 470.03h4.5m4.5 0h9m4.5 0h4.5l3.1.4 2.9 1.2m4.4 4.4l1.2 2.9.4 3.1v4.87m0 4.87v9.73m0 4.87v9.74m0 4.87v9.74m0 4.88v9.73m0 4.88v9.74m0 4.86v9.74m0 4.87v9.72m0 4.87v9.73m0 4.86v9.73m0 4.87v4.86l.4 3.12 1.2 2.88m4.4 4.4l2.9 1.2 3.1.4h4.43m4.43 0h8.87m4.43 0h4.43" stroke="#333" fill="none"/><path d="M661.5 470.53h-.5v-1h.5z" stroke="#333" stroke-width=".05" fill="#333"/><path d="M721.8 650.24l17.22-10.18-17.22-10.18" stroke="#333" fill="none"/><path d="M500.5 672.63c0-4.42 3.58-8 8-8h144c4.42 0 8 3.58 8 8V1112c0 4.42-3.58 8-8 8h-144c-4.42 0-8-3.58-8-8z" stroke="#333" fill="#edf5ff"/><use xlink:href="#g" transform="matrix(1,0,0,1,512.5,676.6278906405594) translate(68 14.4)"/><use xlink:href="#p" transform="matrix(1,0,0,1,512.5,676.6278906405594) translate(39.05 36)"/><path d="M520.5 743.46c0-4.42 3.58-8 8-8h104c4.42 0 8 3.58 8 8v64c0 4.42-3.58 8-8 8h-104c-4.42 0-8-3.58-8-8z" fill="#edf5ff"/><path d="M524.57 736.64l.82-.55 3.1-.64h4.95m4.95 0h9.9m4.96 0h9.9m4.96 0h9.9m4.96 0h9.9m4.95 0h9.9m4.96 0h9.9m4.95 0h4.95l3.1.63.83.54m2.9 2.9l.54.8.63 3.12v5.33m0 5.33v10.66m0 5.33v10.66m0 5.33v10.66m0 5.33v5.33l-.63 3.1-.55.83m-2.9 2.88l-.8.55-3.12.63h-4.95m-4.95 0h-9.9m-4.96 0h-9.9m-4.96 0h-9.9m-4.96 0h-9.9m-4.95 0h-9.9m-4.96 0h-9.9m-4.95 0h-4.95l-3.1-.63-.83-.55m-2.9-2.9l-.54-.8-.63-3.12v-5.33m0-5.34v-10.67m0-5.34v-10.67m0-5.34v-10.67m0-5.34v-5.34l.63-3.1.55-.83" stroke="#333" fill="none"/><use xlink:href="#q" transform="matrix(1,0,0,1,532.5,747.460811340092) translate(18.624999999999996 31.6)"/><path d="M520.5 871.1c0-4.4 3.58-8 8-8h104c4.42 0 8 3.6 8 8v64c0 4.42-3.58 8-8 8h-104c-4.42 0-8-3.58-8-8z" fill="#edf5ff"/><path d="M524.57 864.28l.82-.55 3.1-.62h4.95m4.95 0h9.9m4.96 0h9.9m4.96 0h9.9m4.96 0h9.9m4.95 0h9.9m4.96 0h9.9m4.95 0h4.95l3.1.63.83.55m2.9 2.9l.54.8.63 3.13v5.34m0 5.33v10.67m0 5.33v10.67m0 5.33v10.67m0 5.33v5.34l-.63 3.12-.55.82m-2.9 2.9l-.8.54-3.12.63h-4.95m-4.95 0h-9.9m-4.96 0h-9.9m-4.96 0h-9.9m-4.96 0h-9.9m-4.95 0h-9.9m-4.96 0h-9.9m-4.95 0h-4.95l-3.1-.62-.83-.55m-2.9-2.9l-.54-.8-.63-3.12v-5.33m0-5.33v-10.67m0-5.33v-10.67m0-5.33v-10.67m0-5.33v-5.33l.63-3.1.55-.83" stroke="#333" fill="none"/><use xlink:href="#m" transform="matrix(1,0,0,1,532.5,875.1050045352614) translate(8.549999999999997 31.6)"/><path d="M661.5 892.3h4.5m4.5 0h9m4.5 0h4.5l3.1.42 2.9 1.2m4.4 4.4l1.2 2.88.4 3.1v5.28m0 5.26v10.53m0 5.26v10.53m0 5.26v10.53m0 5.26v5.27l.4 3.12 1.2 2.87m4.4 4.4l2.9 1.2 3.1.4h4.43m4.43 0h8.87m4.43 0h4.43" stroke="#333" fill="none"/><path d="M661.5 892.8h-.5v-1h.5z" stroke="#333" stroke-width=".05" fill="#333"/><path d="M721.8 989.66l17.22-10.2-17.22-10.17M580.5 511.7v4.8m0 4.8v9.58m0 4.8v9.6m0 4.78v9.6m0 4.78v9.6m0 4.78v9.6m0 4.8V598l-.4 3.1-1.2 2.9m-4.4 4.4l-2.9 1.2-3.1.4h-5.36m-5.36 0h-10.72m-5.37 0h-10.73m-5.36 0h-10.7m-5.37 0H498.8m-5.36 0h-10.72m-5.36 0H472l-3.1.4-2.9 1.2m-4.4 4.4l-1.2 2.9-.4 3.1v5.24m0 5.24v10.48m0 5.24v10.48m0 5.23v10.5m0 5.23v10.48m0 5.25v10.48m0 5.24v10.48m0 5.24v10.46m0 5.24v10.48m0 5.24v5.24l.4 3.1 1.2 2.9m4.4 4.4l2.9 1.2 3.1.4h5.23m5.23 0h10.47m5.23 0h10.47m5.23 0h5.23" stroke="#333" fill="none"/><path d="M581 511.72h-1v-.5h1z" stroke="#333" stroke-width=".05" fill="#333"/><path d="M501.8 785.64l17.22-10.18-17.22-10.18" stroke="#333" fill="none"/><path d="M520.5 991.04c0-4.42 3.58-8 8-8h104c4.42 0 8 3.58 8 8v64c0 4.42-3.58 8-8 8h-104c-4.42 0-8-3.58-8-8z" fill="#edf5ff"/><path d="M524.57 984.22l.82-.55 3.1-.63h4.95m4.95 0h9.9m4.96 0h9.9m4.96 0h9.9m4.96 0h9.9m4.95 0h9.9m4.96 0h9.9m4.95 0h4.95l3.1.63.83.55m2.9 2.9l.54.8.63 3.12v5.33m0 5.34v10.67m0 5.34v10.67m0 5.34v10.67m0 5.34v5.34l-.63 3.1-.55.83m-2.9 2.9l-.8.54-3.12.64h-4.95m-4.95 0h-9.9m-4.96 0h-9.9m-4.96 0h-9.9m-4.96 0h-9.9m-4.95 0h-9.9m-4.96 0h-9.9m-4.95 0h-4.95l-3.1-.63-.83-.54m-2.9-2.9l-.54-.8-.63-3.12v-5.33m0-5.33v-10.66m0-5.33v-10.66m0-5.33v-10.66m0-5.33v-5.33l.63-3.1.55-.83" stroke="#333" fill="none"/><use xlink:href="#r" transform="matrix(1,0,0,1,532.5,995.041027712259) translate(35.525 31.6)"/><path d="M1039.5 1023.04h-4.58m-4.6 0h-9.15m-4.6 0H1012l-3.1.4-2.9 1.2m-4.4 4.4l-1.2 2.9-.4 3.1v4.85m0 4.85v9.7m0 4.86v9.7m0 4.87v9.7m0 4.86v9.7m0 4.86v9.7m0 4.85v9.7m0 4.86v9.7m0 4.87v9.7m0 4.86v9.7m0 4.86v9.7m0 4.85v9.7m0 4.86v9.7m0 4.87v9.7m0 4.86v9.7m0 4.86v9.7m0 4.85v4.85l-.4 3.1-1.2 2.9m-4.4 4.4l-2.9 1.2-3.1.4h-5.07m-5.07 0h-10.14m-5.07 0H952.5m-5.06 0H937.3m-5.08 0h-10.14m-5.07 0h-10.13m-5.07 0h-10.14m-5.07 0h-10.15m-5.07 0h-10.14m-5.07 0h-10.14m-5.07 0H830.8m-5.06 0H815.6m-5.07 0H800.4m-5.08 0h-10.14m-5.07 0h-10.13m-5.07 0h-10.14m-5.07 0h-10.16m-5.07 0h-10.14m-5.07 0h-10.14m-5.07 0H693.9m-5.06 0H678.7m-5.07 0H663.5m-5.08 0h-10.14m-5.07 0h-10.14m-5.07 0h-10.15m-5.07 0h-10.14m-5.07 0h-5.07l-3.1-.4-2.9-1.2m-4.4-4.4l-1.2-2.9-.4-3.1v-4.85m0-4.84v-9.7m0-4.83v-9.7m0-4.84v-9.7m0-4.84v-9.7m0-4.85v-9.7m0-4.84v-9.68m0-4.85v-9.7m0-4.84v-9.7m0-4.84v-9.7m0-4.85v-9.7m0-4.84v-9.68m0-4.84v-9.7m0-4.84v-9.7m0-4.84v-4.85" stroke="#333" fill="none"/><path d="M1040 1023.54h-.5v-1h.5z" stroke="#333" stroke-width=".05" fill="#333"/><path d="M590.68 1081.74l-10.18-17.22-10.18 17.22M1039.5 1023.04h-4.5m-4.5 0h-9m-4.5 0h-4.5l-3.1.4-2.9 1.2m-4.4 4.4l-1.2 2.9-.4 3.1v4.85m0 4.85v9.7m0 4.86v9.7m0 4.87v9.7m0 4.86v9.7m0 4.86v9.7m0 4.85v9.7m0 4.86v9.7m0 4.87v9.7m0 4.86v9.7m0 4.86v9.7m0 4.85v9.7m0 4.86v9.7m0 4.87v9.7m0 4.86v9.7m0 4.86v9.7m0 4.85v4.85l-.4 3.1-1.2 2.9m-4.4 4.4l-2.9 1.2-3.1.4h-5.06m-5.06 0h-10.12m-5.05 0h-10.1m-5.07 0H937.9m-5.05 0h-10.1m-5.07 0h-10.12m-5.06 0h-10.12m-5.06 0h-10.1m-5.07 0h-10.12m-5.06 0h-10.12m-5.06 0h-10.12m-5.06 0H816.5m-5.06 0h-10.12m-5.06 0h-10.1m-5.07 0h-10.13m-5.06 0h-10.1m-5.06 0h-10.12m-5.06 0h-10.12m-5.06 0h-10.12m-5.05 0h-10.1m-5.07 0H679.9m-5.05 0h-10.1m-5.07 0h-10.12m-5.06 0h-10.12m-5.06 0h-10.1m-5.07 0h-10.12m-5.06 0h-10.12m-5.06 0h-10.12m-5.06 0H558.5m-5.06 0h-10.12m-5.06 0h-10.1m-5.07 0h-10.13m-5.06 0h-10.1m-5.06 0h-10.12m-5.06 0h-5.06l-3.1-.4-2.9-1.2m-4.4-4.4l-1.2-2.9-.4-3.1v-4.9m0-4.9v-9.8m0-4.9v-9.8m0-4.9v-9.8m0-4.9v-9.82m0-4.9v-9.8m0-4.9v-9.8m0-4.9v-9.8m0-4.9v-9.8m0-4.9v-9.82m0-4.9v-9.8m0-4.9v-9.8m0-4.9v-9.8m0-4.9v-9.8m0-4.9v-9.82m0-4.9v-9.8m0-4.9v-9.8m0-4.9v-9.8m0-4.9v-9.8m0-4.9v-9.82m0-4.9v-9.8m0-4.9v-9.8m0-4.9v-9.8m0-4.9v-9.8m0-4.9v-4.92l.4-3.1 1.2-2.9m4.4-4.4l2.9-1.2 3.1-.4h5.18m5.17 0h10.36m5.18 0h10.36m5.17 0h5.2" stroke="#333" fill="none"/><path d="M1040 1023.54h-.5v-1h.5z" stroke="#333" stroke-width=".05" fill="#333"/><path d="M501.8 913.3l17.22-10.2-17.22-10.18M1100.5 982.04V977m0-5v-10.06m0-5.03v-10.04m0-5.03v-5.02" stroke="#333" fill="none"/><path d="M1101 982.54h-1v-.5h1z" stroke="#333" stroke-width=".05" fill="#333"/><path d="M1110.68 954.1l-10.18-17.22-10.18 17.2M1100.5 557.48v-5.03m0-5.03v-10.05m0-5.02V522.3m0-5.03v-5.03" stroke="#333" fill="none"/><path d="M1101 557.98h-1v-.52h1z" stroke="#333" stroke-width=".05" fill="#333"/><path d="M1110.68 529.53l-10.18-17.2-10.18 17.2" stroke="#333" fill="none"/><path d="M740.5 757.77c0-4.42 3.58-8 8-8h144c4.42 0 8 3.58 8 8v104c0 4.42-3.58 8-8 8h-144c-4.42 0-8-3.58-8-8z" stroke="#333" fill="#e3fae3"/><use xlink:href="#s" transform="matrix(1,0,0,1,752.5,761.769163813044) translate(46.099999999999994 51.6)"/><path d="M580.5 816.46v5.03m0 5v10.07m0 5.02v10.04m0 5.03v5.03" stroke="#333" fill="none"/><path d="M581 816.47h-1v-.5h1z" stroke="#333" stroke-width=".05" fill="#333"/><path d="M570.32 844.4l10.18 17.22 10.18-17.2" stroke="#333" fill="none"/><path d="M1280 398.7c0-4.4 3.58-8 8-8h144c4.42 0 8 3.6 8 8v104c0 4.43-3.58 8-8 8h-144c-4.42 0-8-3.57-8-8z" stroke="#333" fill="#e3fae3"/><g><use xlink:href="#t" transform="matrix(1,0,0,1,1292,402.708170018172) translate(32 51.6)"/><use xlink:href="#u" transform="matrix(1,0,0,1,1292,402.708170018172) translate(50 51.6)"/><use xlink:href="#v" transform="matrix(1,0,0,1,1292,402.708170018172) translate(68 51.6)"/><use xlink:href="#w" transform="matrix(1,0,0,1,1292,402.708170018172) translate(86 51.6)"/></g><path d="M1280 568c0-4.42 3.58-8 8-8h144c4.42 0 8 3.58 8 8v104c0 4.42-3.58 8-8 8h-144c-4.42 0-8-3.58-8-8z" stroke="#333" fill="#edf5ff"/><g><use xlink:href="#x" transform="matrix(1,0,0,1,1292,572) translate(5 40.8)"/><use xlink:href="#y" transform="matrix(1,0,0,1,1292,572) translate(23 40.8)"/><use xlink:href="#z" transform="matrix(1,0,0,1,1292,572) translate(41 40.8)"/><use xlink:href="#A" transform="matrix(1,0,0,1,1292,572) translate(59 40.8)"/><use xlink:href="#B" transform="matrix(1,0,0,1,1292,572) translate(77 40.8)"/><use xlink:href="#C" transform="matrix(1,0,0,1,1292,572) translate(95 40.8)"/><use xlink:href="#D" transform="matrix(1,0,0,1,1292,572) translate(113 40.8)"/><use xlink:href="#E" transform="matrix(1,0,0,1,1292,572) translate(59 62.4)"/></g><defs><path fill="#333" d="M89-182c13-2 14-24 1-32-7-7-19-16-35-25 6 18 20 24 25 48 2 5 5 9 9 9zm7 53c1-9 17-10 6-18-4-2-9-6-13-11l-11 11H22l5 10h53V-5c0 7-5 11-14 15 6 7 11 13 14 19 19-13 36-30 53-50l-1-3C120-14 108-7 96-2v-127zm96-62c14-3 13-24 0-35-8-6-22-23-38-28 17 22 21 26 29 55 2 5 5 8 9 8zm46 14c20-14 33-40 51-62 8-1 8-8-1-10-6-3-13-6-19-10-10 36-20 53-38 82-31-1-70 5-88-9 9 32 2 77 4 115 5 6 20-1 16-14h30c-9 75-36 110-97 134l1 2C168 33 199-7 211-85h24v96c-7 42 37 26 79 30 10 1 32-13 10-19-7-8-7-27-9-41h-3c-4 19 6 50-27 44-25-5-33 3-34-14v-96h37c-3 12 5 12 14 8 8-20 0-54 3-79-1-8 23-13 6-21-5-3-9-6-14-12l-11 12h-48zm-75 83v-73h125v73H163" id="F"/><use transform="matrix(0.05,0,0,0.05,0,0)" xlink:href="#F" id="a"/><path fill="#333" d="M141-189c2-7 17-13 2-19-4-3-9-7-14-13l-12 11c-28-1-61 4-77-9 10 67 1 151 4 225 13 9 17-8 16-24h65c1 6-2 16 3 17 4-2 11-2 13-7v-181zM60-27v-84h65v84H60zm0-94v-79h65v79H60zm246-93c0-8 21-14 9-21-5-3-10-8-15-15l-14 13h-86l-24-13c11 36 5 84 5 127 0 78-12 134-53 174l1 3c42-33 59-59 66-121h93v82c0 24-21 10-42 9v4c16 6 24 15 30 26 9-2 33-16 30-30v-238zM197-77c3-23 2-47 2-72h89v72h-91zm2-82v-68h89v68h-89" id="G"/><use transform="matrix(0.05,0,0,0.05,0,0)" xlink:href="#G" id="b"/><path fill="#333" d="M32-163c41-10 102-14 102 39v112c8 3 24-2 21 12h-45l-4-17C83 13 3 13 13-46c-2-50 45-50 92-51 4-36-5-70-42-56-6 2-12 4-16 6-4 7 0 23-15 20v-36zM42-47c0 41 41 33 63 22v-59c-34 1-63-1-63 37" id="H"/><path fill="#333" d="M166-85c3 67-44 102-111 85l1 64 29 4v9H6v-9l21-4v-217c-7-3-22 1-19-12h46l1 9c11-8 26-14 45-14 47 2 64 36 66 85zM56-13c53 14 83-14 78-72 7-53-33-79-78-60v132" id="I"/><path fill="#333" d="M47-200c-23 0-25-39 0-38 13 0 18 7 20 19-1 11-8 19-20 19zM65-12l28 4v8H8v-8l28-4v-141l-24-4v-8h53v153" id="J"/><g id="c"><use transform="matrix(0.05,0,0,0.05,0,0)" xlink:href="#H"/><use transform="matrix(0.05,0,0,0.05,7.95,0)" xlink:href="#I"/><use transform="matrix(0.05,0,0,0.05,16.95,0)" xlink:href="#J"/></g><path fill="#333" d="M41-130c7 48 86 23 86 84 0 56-69 57-112 41v-40c20 0 9 29 31 31 35 19 77-26 41-50-27-18-72-13-72-59 0-50 58-52 100-41v36c-19 1-8-25-28-25-21-7-50-1-46 23" id="K"/><path fill="#333" d="M84-170c49 0 66 33 63 87H46c-8 60 38 80 95 63v10C128-2 108 4 88 4 34 4 14-29 14-84c-1-54 22-86 70-86zm33 73c12-57-57-82-69-24-1 7-2 15-2 24h71" id="L"/><path fill="#333" d="M57-145c16-10 35-24 60-25v45c-19 1-8-30-40-17l-20 6v124l29 4v8H7v-8l21-4v-141c-8-3-24 2-21-12h48" id="M"/><path fill="#333" d="M164-154L98 4H85L17-153c-7-3-20 0-17-12h77v8l-26 4L99-38l46-115-26-4v-8h61v8" id="N"/><path fill="#333" d="M45-84c0 64 52 80 104 63 1 25-30 25-55 25-56 0-80-32-80-88 0-76 62-98 131-80v46h-10c-5-15-4-31-23-35-47-10-67 21-67 69" id="O"/><g id="d"><use transform="matrix(0.05,0,0,0.05,0,0)" xlink:href="#K"/><use transform="matrix(0.05,0,0,0.05,7,0)" xlink:href="#L"/><use transform="matrix(0.05,0,0,0.05,14.949999999999998,0)" xlink:href="#M"/><use transform="matrix(0.05,0,0,0.05,20.9,0)" xlink:href="#N"/><use transform="matrix(0.05,0,0,0.05,29.899999999999995,0)" xlink:href="#J"/><use transform="matrix(0.05,0,0,0.05,34.9,0)" xlink:href="#O"/><use transform="matrix(0.05,0,0,0.05,42.85,0)" xlink:href="#L"/></g><path fill="#333" d="M53-14c58 12 82-15 82-73 0-52-35-77-82-58v131zM89 4C64 4 42-2 24-9v-229l-24-4v-8h53l-1 94c48-33 114-4 114 69 0 57-23 91-77 91" id="P"/><path fill="#333" d="M10 0v-8l90-143c-23 2-54-4-70 6-5 8 1 26-14 24v-44h122v8L47-14c29-2 65 3 86-8l9-35h8l-5 57H10" id="Q"/><g id="e"><use transform="matrix(0.05,0,0,0.05,0,0)" xlink:href="#P"/><use transform="matrix(0.05,0,0,0.05,9,0)" xlink:href="#J"/><use transform="matrix(0.05,0,0,0.05,14,0)" xlink:href="#Q"/></g><path fill="#333" d="M13-81c0-71 46-101 114-85l-1-72-28-4v-8h57v238c8 3 24-2 21 12h-47l-2-12C80 23 13-1 13-81zm77-74c-37 1-44 33-45 74 0 38 9 66 45 66 14 0 27-3 36-7v-130c-10-1-24-3-36-3" id="R"/><path fill="#333" d="M54-38c-1 25 24 26 44 20v12C71 10 25 9 25-35v-115H4c-2-14 14-10 21-15l18-38h11v38h38v15H54v112" id="S"/><g id="f"><use transform="matrix(0.05,0,0,0.05,0,0)" xlink:href="#R"/><use transform="matrix(0.05,0,0,0.05,9,0)" xlink:href="#H"/><use transform="matrix(0.05,0,0,0.05,16.95,0)" xlink:href="#S"/><use transform="matrix(0.05,0,0,0.05,21.95,0)" xlink:href="#H"/></g><path fill="#333" d="M77-14l30 5v9H13v-9l30-5v-208l-30-4v-10h94v10l-30 4v208" id="T"/><path fill="#333" d="M125-118c4-37-41-34-68-26v132l23 4v8H8C5-13 21-9 28-12v-141c-7-3-23 1-20-12h47l2 13c31-23 98-29 98 31v109c7 3 23-1 20 12h-72v-8l22-4v-106" id="U"/><path fill="#333" d="M103-236c-39-15-35 32-34 71h44v15H69v136l35 6v8H15v-8l25-6v-136H11v-9l29-7c-6-59 23-100 80-84v36c-15 2-12-14-17-22" id="V"/><g id="h"><use transform="matrix(0.05,0,0,0.05,0,0)" xlink:href="#T"/><use transform="matrix(0.05,0,0,0.05,5.95,0)" xlink:href="#U"/><use transform="matrix(0.05,0,0,0.05,14.949999999999998,0)" xlink:href="#S"/><use transform="matrix(0.05,0,0,0.05,19.95,0)" xlink:href="#L"/><use transform="matrix(0.05,0,0,0.05,27.899999999999995,0)" xlink:href="#M"/><use transform="matrix(0.05,0,0,0.05,33.85,0)" xlink:href="#V"/><use transform="matrix(0.05,0,0,0.05,39.800000000000004,0)" xlink:href="#H"/><use transform="matrix(0.05,0,0,0.05,47.75000000000001,0)" xlink:href="#O"/><use transform="matrix(0.05,0,0,0.05,55.70000000000002,0)" xlink:href="#L"/><use transform="matrix(0.05,0,0,0.05,63.65000000000001,0)" xlink:href="#K"/></g><path fill="#333" d="M75-17c87 13 134-18 134-103 0-78-51-106-134-100v203zm171-102C246 5 139 7 10 0v-9l31-5v-208l-31-4v-10h107c82 0 129 35 129 117" id="W"/><path fill="#333" d="M55 0v-9l38-5v-207c-22 1-53 0-70 4l-5 37H7v-56h207v56h-12l-5-37-70-3v206l37 5v9H55" id="X"/><path fill="#333" d="M130-224c-62 0-78 43-78 106 0 64 16 108 78 108s78-45 78-108-16-106-78-106zm0 228C53 4 15-39 15-118c-1-80 37-120 115-120s115 42 115 120C245-39 207 4 130 4" id="Y"/><g id="i"><use transform="matrix(0.05,0,0,0.05,0,0)" xlink:href="#W"/><use transform="matrix(0.05,0,0,0.05,12.950000000000001,0)" xlink:href="#X"/><use transform="matrix(0.05,0,0,0.05,23.550000000000004,0)" xlink:href="#Y"/></g><path fill="#333" d="M199-173c-1 36-21 56-49 65l64 94 26 5v9h-57l-66-103H75v89l35 5v9H13v-9l28-5v-208l-31-4v-10c80 4 190-20 189 63zM75-119c50 2 89-1 89-51 0-49-39-52-89-50v101" id="Z"/><path fill="#333" d="M10-9l31-5v-208l-31-4v-10h177v57h-11l-6-38c-28-4-63-3-95-3v92h63l6-28h11v73h-11l-6-29H75v96l105-3 10-43h12l-3 62H10v-9" id="aa"/><path fill="#333" d="M178-68c0 79-95 82-154 59v-54h12c1 35 22 52 60 52 50 0 69-58 33-82-39-24-105-21-105-85 0-67 86-66 142-53v49h-12l-6-29c-31-27-121-7-89 42 28 43 119 24 119 101" id="ab"/><g id="j"><use transform="matrix(0.05,0,0,0.05,0,0)" xlink:href="#Z"/><use transform="matrix(0.05,0,0,0.05,12,0)" xlink:href="#aa"/><use transform="matrix(0.05,0,0,0.05,22.950000000000003,0)" xlink:href="#ab"/><use transform="matrix(0.05,0,0,0.05,32.95,0)" xlink:href="#X"/></g><path fill="#333" d="M124-13C89 8 26 15 26-45v-108c-8-3-24 2-21-12h50v118c-3 37 42 32 69 25v-131l-25-4v-8h54v153c8 3 24-2 21 12h-48" id="ac"/><g id="k"><use transform="matrix(0.05,0,0,0.05,0,0)" xlink:href="#T"/><use transform="matrix(0.05,0,0,0.05,5.95,0)" xlink:href="#U"/><use transform="matrix(0.05,0,0,0.05,14.949999999999998,0)" xlink:href="#V"/><use transform="matrix(0.05,0,0,0.05,20.9,0)" xlink:href="#M"/><use transform="matrix(0.05,0,0,0.05,26.849999999999994,0)" xlink:href="#H"/><use transform="matrix(0.05,0,0,0.05,34.8,0)" xlink:href="#K"/><use transform="matrix(0.05,0,0,0.05,41.8,0)" xlink:href="#S"/><use transform="matrix(0.05,0,0,0.05,46.8,0)" xlink:href="#M"/><use transform="matrix(0.05,0,0,0.05,52.75,0)" xlink:href="#ac"/><use transform="matrix(0.05,0,0,0.05,61.75,0)" xlink:href="#O"/><use transform="matrix(0.05,0,0,0.05,69.7,0)" xlink:href="#S"/><use transform="matrix(0.05,0,0,0.05,74.7,0)" xlink:href="#ac"/><use transform="matrix(0.05,0,0,0.05,83.7,0)" xlink:href="#M"/><use transform="matrix(0.05,0,0,0.05,89.65,0)" xlink:href="#L"/></g><path fill="#333" d="M161-154L85 37C75 66 49 86 8 75V39c18-2 6 24 29 21 30-4 38-32 47-58L21-153c-7-3-20 0-17-12h77v8l-26 4 45 116 43-116-26-4v-8h62v8" id="ad"/><g id="l"><use transform="matrix(0.05,0,0,0.05,0,0)" xlink:href="#aa"/><use transform="matrix(0.05,0,0,0.05,10.950000000000001,0)" xlink:href="#U"/><use transform="matrix(0.05,0,0,0.05,19.950000000000003,0)" xlink:href="#S"/><use transform="matrix(0.05,0,0,0.05,24.950000000000003,0)" xlink:href="#J"/><use transform="matrix(0.05,0,0,0.05,29.950000000000003,0)" xlink:href="#S"/><use transform="matrix(0.05,0,0,0.05,34.95,0)" xlink:href="#ad"/></g><path fill="#333" d="M90-170c52 0 76 32 76 87 0 54-24 87-77 87-51 0-75-34-75-87 0-54 24-87 76-87zM89-10c39 0 46-35 46-73 0-39-7-73-46-73-39 1-44 34-44 73s6 72 44 73" id="ae"/><g id="m"><use transform="matrix(0.05,0,0,0.05,0,0)" xlink:href="#Z"/><use transform="matrix(0.05,0,0,0.05,12,0)" xlink:href="#L"/><use transform="matrix(0.05,0,0,0.05,19.95,0)" xlink:href="#I"/><use transform="matrix(0.05,0,0,0.05,28.950000000000003,0)" xlink:href="#ae"/><use transform="matrix(0.05,0,0,0.05,37.95,0)" xlink:href="#K"/><use transform="matrix(0.05,0,0,0.05,44.95,0)" xlink:href="#J"/><use transform="matrix(0.05,0,0,0.05,49.95,0)" xlink:href="#S"/><use transform="matrix(0.05,0,0,0.05,54.95,0)" xlink:href="#ae"/><use transform="matrix(0.05,0,0,0.05,63.95,0)" xlink:href="#M"/><use transform="matrix(0.05,0,0,0.05,69.9,0)" xlink:href="#ad"/></g><path fill="#333" d="M81-9v9H4v-9l26-5 81-224h33l83 224 30 5v9h-99v-9l31-5-23-68H73L49-14zm38-203L78-98h82" id="af"/><path fill="#333" d="M65-12l28 4v8H7v-8l28-4v-226l-28-4v-8h58v238" id="ag"/><g id="n"><use transform="matrix(0.05,0,0,0.05,0,0)" xlink:href="#af"/><use transform="matrix(0.05,0,0,0.05,12.950000000000001,0)" xlink:href="#I"/><use transform="matrix(0.05,0,0,0.05,21.950000000000003,0)" xlink:href="#I"/><use transform="matrix(0.05,0,0,0.05,30.950000000000003,0)" xlink:href="#ag"/><use transform="matrix(0.05,0,0,0.05,35.95,0)" xlink:href="#J"/><use transform="matrix(0.05,0,0,0.05,40.95,0)" xlink:href="#O"/><use transform="matrix(0.05,0,0,0.05,48.900000000000006,0)" xlink:href="#H"/><use transform="matrix(0.05,0,0,0.05,56.85,0)" xlink:href="#S"/><use transform="matrix(0.05,0,0,0.05,61.85,0)" xlink:href="#J"/><use transform="matrix(0.05,0,0,0.05,66.85000000000001,0)" xlink:href="#ae"/><use transform="matrix(0.05,0,0,0.05,75.85000000000001,0)" xlink:href="#U"/></g><g id="o"><use transform="matrix(0.05,0,0,0.05,0,0)" xlink:href="#ab"/><use transform="matrix(0.05,0,0,0.05,10,0)" xlink:href="#L"/><use transform="matrix(0.05,0,0,0.05,17.95,0)" xlink:href="#M"/><use transform="matrix(0.05,0,0,0.05,23.9,0)" xlink:href="#N"/><use transform="matrix(0.05,0,0,0.05,32.9,0)" xlink:href="#J"/><use transform="matrix(0.05,0,0,0.05,37.9,0)" xlink:href="#O"/><use transform="matrix(0.05,0,0,0.05,45.85,0)" xlink:href="#L"/></g><path fill="#333" d="M126-118c4-37-42-32-68-25v131l24 4v8H8C5-13 21-9 28-12v-141c-7-3-23 1-20-12h48l1 13c22-15 77-30 92 2 32-22 104-36 104 29v109c8 3 24-2 21 12h-75v-8l25-4v-106c3-39-45-31-72-24 7 37 1 88 3 130l25 4v8h-78v-8l24-4v-106" id="ah"/><g id="p"><use transform="matrix(0.05,0,0,0.05,0,0)" xlink:href="#W"/><use transform="matrix(0.05,0,0,0.05,12.950000000000001,0)" xlink:href="#ae"/><use transform="matrix(0.05,0,0,0.05,21.950000000000003,0)" xlink:href="#ah"/><use transform="matrix(0.05,0,0,0.05,35.95,0)" xlink:href="#H"/><use transform="matrix(0.05,0,0,0.05,43.900000000000006,0)" xlink:href="#J"/><use transform="matrix(0.05,0,0,0.05,48.900000000000006,0)" xlink:href="#U"/></g><path fill="#333" d="M134-16c44-1 70-21 70-64v-142l-32-4v-10h80v10l-30 4v141c0 57-33 84-91 85-58 0-93-26-93-82v-144l-30-4v-10h94v10l-30 4c7 82-31 209 62 206" id="ai"/><g id="q"><use transform="matrix(0.05,0,0,0.05,0,0)" xlink:href="#ai"/><use transform="matrix(0.05,0,0,0.05,12.950000000000001,0)" xlink:href="#K"/><use transform="matrix(0.05,0,0,0.05,19.950000000000003,0)" xlink:href="#L"/><use transform="matrix(0.05,0,0,0.05,27.900000000000002,0)" xlink:href="#O"/><use transform="matrix(0.05,0,0,0.05,35.85,0)" xlink:href="#H"/><use transform="matrix(0.05,0,0,0.05,43.800000000000004,0)" xlink:href="#K"/><use transform="matrix(0.05,0,0,0.05,50.800000000000004,0)" xlink:href="#L"/></g><path fill="#333" d="M75-131c50 2 93 3 93-48 0-46-48-41-93-41v89zm0 115c55 4 111 6 111-51 0-53-58-48-111-48v99zm148-52C223 24 102-3 10 0v-9l31-5v-208l-31-4v-10c77 6 193-24 194 56 0 33-20 48-48 54 36 5 67 20 67 58" id="aj"/><g id="r"><use transform="matrix(0.05,0,0,0.05,0,0)" xlink:href="#aj"/><use transform="matrix(0.05,0,0,0.05,12,0)" xlink:href="#Y"/></g><g id="s"><use transform="matrix(0.05,0,0,0.05,0,0)" xlink:href="#K"/><use transform="matrix(0.05,0,0,0.05,7,0)" xlink:href="#L"/><use transform="matrix(0.05,0,0,0.05,14.949999999999998,0)" xlink:href="#M"/><use transform="matrix(0.05,0,0,0.05,20.9,0)" xlink:href="#N"/><use transform="matrix(0.05,0,0,0.05,29.899999999999995,0)" xlink:href="#L"/><use transform="matrix(0.05,0,0,0.05,37.85,0)" xlink:href="#M"/></g><path fill="#333" d="M287-210c1-9 25-14 5-22-5-3-10-8-17-15l-14 14H84l-24-12c12 88 2 199 5 296 1 9 11 0 16 0 6-2 2-12 3-19h184c1 6-3 18 4 18 5-3 13-4 15-9v-251zM84 22v-84h184v84H84zm0-93v-73h184v73H84zm0-82v-71h184v71H84" id="ak"/><use transform="matrix(0.05,0,0,0.05,0,0)" xlink:href="#ak" id="t"/><path fill="#333" d="M157 51c9 7 26-13 26-29v-158h140c10 1 10-9 2-11-9-5-17-11-22-18l-17 20h-51c7-26 8-60 20-81 10-2 9-6 2-11-3-2-7-6-11-13l-13 11H78l6 10h152l-9 37H62l5 10h158l-9 37H18l5 9h142V20c0 12-26 8-39 8v4c17 4 27 10 31 19zM124-56c9-4 17-19 4-28-9-6-30-17-66-31l-3 3c27 15 46 31 58 50 2 4 4 6 7 6zM25-8c6 6 18 38 25 15 28-11 59-25 93-42l-3-3C102-26 63-16 25-8zm187-51c33-9 56-27 86-39-5-7-15-11-22-20-15 23-44 44-67 55zm-5 18l-1 3c46 17 77 34 92 49 10 9 18 13 23 13 13-7 3-22-10-30-17-10-51-22-104-35" id="al"/><use transform="matrix(0.05,0,0,0.05,0,0)" xlink:href="#al" id="u"/><path fill="#333" d="M51-138c24-25 32-65 53-98-5-5-15-6-22-12-7 43-24 87-52 108 5 8 7 15 8 22 21-9 37-10 65-21-14 31-40 71-70 83 5 8 9 16 10 23 32-18 57-20 101-45l-3-4c-32 13-61 23-86 28 41-32 60-79 92-127-5-6-16-7-23-14-4 17-10 34-17 49-21 4-40 6-56 8zM26 20c5 3 13 39 21 21 28-22 57-34 99-71l-3-3C95-6 71 8 26 20zm218-216c-1-22 1-40 7-51-6-5-19-4-28-9 7 14 3 40 4 60h-77l5 10h72v64h-66l5 10h151c8 1 10-9 2-11-8-5-14-9-18-15l-15 16h-42v-64h82c10 0 10-8 2-12-9-4-15-11-20-17l-17 19h-47zm68 140c0-9 21-14 5-21-5-3-10-6-15-12l-11 11H181l-19-10c9 39 2 92 4 137 9 6 22-5 17-21h112c1 5-3 15 3 16 4-2 13-2 14-6v-94zM183 18v-86h112v86H183" id="am"/><use transform="matrix(0.05,0,0,0.05,0,0)" xlink:href="#am" id="v"/><path fill="#333" d="M115-109c24-16-10-36-29-46v-22h43c9 1 10-8 2-10-8-5-15-10-19-16-8 6-9 19-26 17 2-22-5-54 6-66-3-7-20-5-25-9 4 15 3 53 3 75H21c3 15 29 7 45 9-13 71-23 78-47 144 23-32 39-58 51-99l1 186c5-3 14-2 15-8v-196c11 12 14 16 21 34 2 4 4 7 8 7zm201-71c2-4 20-10 6-17-6-3-10-8-14-14l-14 14H183c5-16 5-17 11-39 2-3 17-7 4-12-6-2-12-5-19-10-13 76-19 100-51 151l1 3c27-29 39-46 51-84h120c-1 81 0 141-12 194-7 28-32 18-64 16v3c18 4 31 15 41 28 40-21 39-33 47-91 3-24 4-72 4-142zm-99 38c1-5 20-11 2-14-7-2-14-5-21-9-3 38-13 81-31 129-11 1-22 2-31 2 6 6 8 21 17 26 22-18 59-14 100-30 2 9-2 23 8 23 16-7 15-26 4-44-6-11-16-23-29-38l-3 1c9 18 16 36 19 53l-80 7c18-30 33-65 45-106" id="an"/><use transform="matrix(0.05,0,0,0.05,0,0)" xlink:href="#an" id="w"/><path fill="#333" d="M106-223c2-7 25-8 9-16-6-2-12-6-19-11-23 64-36 86-79 126l1 3c38-19 65-58 86-98 28 23 37 47 55 64 6 0 9-3 9-11-9-27-23-30-62-57zm11 104c8-2 12-17 6-26-3-4-19-21-38-28 11 14 20 31 25 50 2 3 4 4 7 4zm-2 154c22-10-1-39-16-49 17-19 34-43 51-72 5-4 24-7 10-14-6-3-11-8-17-15l-10 8H34l6 10h95c-11 29-25 56-39 80-11-7-28-22-46-28 32 28 37 33 56 71 2 5 5 9 9 9zm198-188c-1-9 20-14 4-21-5-3-10-6-15-12-12 16-50 7-76 9 10-13 18-29 25-47h76c8 1 10-9 1-10-8-5-14-11-19-17l-17 18H155l6 9h70c-2 17-6 33-10 47-21 1-38-1-49-9 10 53 1 122 4 182 2 7 14-1 16-4v-159h105V-6c3 5 15-1 16-5v-142zm-62 93c0-25-4-60 6-73-7-2-18-4-26-8 3 3 4 30 4 81 0 78-42 88-109 111l2 3c66-16 121-31 123-114zm10 54c32 22 42 43 62 60 10-2 11-20 0-26-6-7-27-19-61-37" id="ao"/><use transform="matrix(0.05,0,0,0.05,0,0)" xlink:href="#ao" id="x"/><path fill="#333" d="M14-37c5 3 12 39 20 22 25-15 55-19 94-42l-3-3c-16 5-31 8-44 11v-106c14-2 59 6 43-10-8-5-14-10-18-16-8 6-9 18-25 16 2-30-6-71 7-87-5-4-18-4-26-9 6 25 2 65 3 96H17l5 10h43v110c-15 4-37 7-51 8zm313 13c-8 23-7 32-19 49-12-6-31-37-37-57 15-20 30-47 44-84 0-6 18-9 4-15-5-2-11-7-18-13-12 46-23 72-37 95-12-37-18-82-19-135h83c8 1 10-8 2-10-8-5-15-11-20-17l-16 18h-49c1-20-7-54 8-61-5-8-18-3-32-9 8 24 6 42 6 70H114l6 9h107c3 61 11 107 27 150-27 36-67 59-114 80l1 3c50-17 90-39 119-69 17 31 30 65 63 71 20-1 5-14 4-25 0-4 1-20 3-50h-3zm-113-98c-1-9 24-13 7-20-5-3-10-7-15-13l-11 13c-27 0-55 2-69-10 8 27 2 66 4 99 3 4 19 2 17-9h51c-2 11 7 7 13 4 8-15 1-44 3-64zm-67 51v-62h51v62h-51zm-36 85c33-20 69-27 120-58l-3-2C172-26 143-15 91-8c5 6 10 21 16 28 2 0 4-2 4-6zm146-257c19 14 25 25 37 36 8 1 13-15 5-20-4-4-18-9-40-18" id="ap"/><use transform="matrix(0.05,0,0,0.05,0,0)" xlink:href="#ap" id="y"/><path fill="#333" d="M120-121c-3-15-20-24-35-34v-27c15-3 42 6 47-6-5-6-18-11-21-18-7 6-10 17-26 14 1-21-4-50 6-62-3-7-20-4-25-8 4 13 3 49 3 70H18l5 10h42C54-125 41-87 18-52l1 3c22-20 38-53 50-87l1 190c5-3 14-2 15-8v-194c13 10 10 32 26 41 6 0 10-5 9-14zm77-96c0-14-1-30 5-37-3-7-20-4-25-8 3 7 3 29 3 45h-56l5 10h51c1 10-2 22 1 30 5-3 14-2 16-8v-22h50c1 9-3 24 2 30 14-1 17-13 15-30h59c10 1 10-9 2-11-9-5-15-11-20-18l-17 19h-24c0-14-1-30 5-37-3-7-20-4-25-8 3 7 3 29 3 45h-50zm101 73c0-8 25-13 8-21-4-3-10-6-15-12l-11 10H161l-20-10c12 31-1 84 7 120 12-1 16-10 14-25h48c-1 13-2 24-3 34H104l6 10h95c-9 52-43 76-94 88l1 4c64-7 97-32 109-90 7 31 56 79 76 89 10-10 26-9 34-15-54-16-76-31-106-76h98c9 0 11-9 2-11-9-5-15-12-20-18l-17 19h-65c1-10 2-21 3-34h56c-3 12 5 12 13 7 8-16 3-47 3-69zM162-92v-29h120v29H162zm0-38v-28h120v28H162" id="aq"/><use transform="matrix(0.05,0,0,0.05,0,0)" xlink:href="#aq" id="z"/><path fill="#333" d="M19-54c44-29 60-46 68-98h53v82c2 7 10-1 14-1 6-22 0-55 2-81h50c8 0 10-8 2-11-8-5-15-9-19-15-8 8-13 19-33 16v-71c16-3 43 7 49-6-6-7-22-14-25-22l-17 18H27l6 10h40l-2 71H21l5 10h44c-7 48-19 64-53 95zm121-108H88l1-71h51v71zm102 60c10-37-8-100 8-130-2-7-20-4-23-8l2 143zm64-132c0-7 15-12 1-15-6-1-13-2-20-5 7 47 1 113 3 166-4 11-29 4-41 3v4c22 3 29 13 37 24 10-1 20-15 20-31v-146zM187-38c-7-18 16-31 0-36-7-1-14-4-22-7 5 10 4 28 4 43H60l6 10h103v63H19l6 9h301c11 0 10-8 1-11-10-6-17-12-22-19l-18 21H187v-63h95c10 0 10-8 2-12-9-4-15-11-20-17l-17 19h-60" id="ar"/><use transform="matrix(0.05,0,0,0.05,0,0)" xlink:href="#ar" id="A"/><path fill="#333" d="M135-100c-5-15-22-24-41-34v-33c15-2 41 6 46-6-5-6-17-11-20-18-7 6-10 17-26 14 2-22-5-55 5-68-3-7-20-5-25-9 4 15 3 54 3 77H23c2 14 24 9 40 10C49-96 41-87 18-20c30-43 43-74 59-135l1 210c5-3 14-2 16-8v-175c12 13 15 17 23 35 2 5 5 8 9 8 6 0 10-6 9-15zm96-110c-2-19 2-30 7-40l-26-8c4 11 1 33 2 48h-74l6 10h59c-6 22-16 45-30 68-9-6-21-12-34-20l-1 3c30 25 40 45 58 64 6 0 9-4 9-13-3-15-13-20-29-32 19-20 35-43 47-70h98c9 0 11-9 2-11-9-5-15-12-20-18l-17 19h-57zm33 39c-22 64-67 114-127 147l2 3c72-32 99-63 138-130 4-2 17-5 5-10-5-2-11-5-18-10zM248-21c22-19 39-49 62-75 4 0 6 0 6-2-5-7-16-8-24-16-31 76-97 131-180 167l2 2c60-22 96-41 130-73 30 21 51 39 62 55 8 11 14 17 18 17 5 0 8-5 8-13-13-31-31-31-84-62" id="as"/><use transform="matrix(0.05,0,0,0.05,0,0)" xlink:href="#as" id="B"/><path fill="#333" d="M55-134C54-79 39-63 23-30c3 10 15 14 22 2 15-27 14-52 15-106h-5zm70-26c-2-10 17-15 0-18-7-1-14-4-22-7 7 58-1 125 3 188 3 42 22 36 85 36 61 0 78 5 99-19-13-8-15-30-15-57h-3c-3 23-3 51-18 56-8 3-28 2-63 2-45 0-61 6-66-18v-163zm18-90l-2 5c28 19 46 37 55 53 6 9 11 14 14 14 13-4 9-27-2-35-10-11-31-24-65-37zM303-53c5 15 24 10 21-9-6-35-30-53-60-80l-2 1c24 35 27 43 41 88" id="at"/><use transform="matrix(0.05,0,0,0.05,0,0)" xlink:href="#at" id="C"/><path fill="#333" d="M112-114c-3-16-19-26-34-38v-25c13-1 54 6 38-10-7-4-12-8-16-13-6 6-8 16-22 14 2-23-5-55 6-68-3-7-20-4-25-8 4 15 3 53 3 76H18c3 15 27 7 43 9-11 72-22 80-43 149 18-30 34-57 44-94l1 176c5-3 14-2 15-8v-190c9 13 11 18 18 37 2 4 4 7 8 7 6 0 9-5 8-14zm85-87c-1-9 20-14 4-21-4-3-9-6-14-12-11 15-49 10-63 0l1 215c-6 2-13 3-18 4 6 6 9 22 17 28 15-21 37-27 66-55 5 11-1 30 10 34 7 0 13-9 12-18-5-20-17-39-36-55 5 11 9 23 12 34-19 10-34 17-47 22v-78h39c-2 11 4 13 13 8 2-1 4-2 4-3v-103zm-56-14h39v47h-39v-47zm0 56h39v47h-39v-47zM279 10c0-30-6-74 7-88-1-3-12-3-16-5 2-9 4-19 6-29h51c6 0 7-8 1-10-6-4-11-7-15-12l-12 12h-24c4-28 5-61 5-95 14-2 40 6 46-5-5-8-20-13-23-21l-15 17h-78c3 5 4 11 13 9v95h-22l6 10h50C246-34 224-8 165 46l3 3c49-33 80-67 94-103 6 40-21 101 35 94 23-3 31 2 35-15-9-10-8-36-9-62h-3c-5 32 12 62-23 62-16 0-18-3-18-15zm-18-132h-19v-95h23" id="au"/><use transform="matrix(0.05,0,0,0.05,0,0)" xlink:href="#au" id="D"/><path fill="#333" d="M19-118c76-30 105-58 154-124 32 60 72 90 124 118 8-8 19-12 33-12l1-4c-67-17-121-55-156-104 7 1 22-5 8-9-6-2-13-6-21-12-40 75-68 100-144 143zm186-57l-14 13h-80l6 10h101c7 1 10-8 3-10-7-4-12-8-16-13zm39 45l-11 11H66l5 10h162l-30 60c4 2 15 2 20 0 12-20 16-48 34-61 12-9-7-11-13-20zM65-35C62-1 44 9 27 26c8 20 36 4 37-13 4-10 6-26 6-48h-5zm56 50c2-22-5-55 7-65-7-4-18-5-28-10 6 24 1 48 3 75 3 37 16 34 70 34 49 0 64 3 80-18-12-3-8-27-15-40-3 15-4 35-15 39-17-1-113 14-102-15zm26-79c23 19 29 40 41 58 13-1 9-24 2-32-8-9-21-19-42-30zm148 82c4 14 24 8 20-8-5-24-30-37-57-54 15 24 28 30 37 62" id="av"/><use transform="matrix(0.05,0,0,0.05,0,0)" xlink:href="#av" id="E"/></defs></g></svg>